<svg width="164" height="44" fill="none" xmlns="http://www.w3.org/2000/svg"><path d="M.762 43.047C.254 42.723 0 42.22 0 41.54c0-.519.16-.933.476-1.24.318-.309.826-.495 1.524-.56l1.334-.097c1.239-.066 2.168-.455 2.787-1.168.619-.713.929-1.847.929-3.405V12.743c0-.778.23-1.37.69-1.775.46-.405 1.04-.608 1.739-.608.698 0 1.27.203 1.715.608.443.405.666.997.666 1.775v22.035c0 2.724-.619 4.783-1.857 6.178-1.238 1.394-3.16 2.188-5.763 2.383l-1.286.097C2 43.501 1.27 43.37.762 43.047zM7.287 4.815c-.54-.519-.81-1.2-.81-2.043 0-.843.27-1.515.81-2.018C7.827.25 8.557 0 9.478 0c.889 0 1.611.251 2.167.754.556.503.834 1.176.834 2.018 0 .844-.27 1.524-.81 2.043-.54.518-1.27.778-2.19.778-.922 0-1.652-.26-2.192-.778zm15.36 28.601c-1.73-1.005-3.064-2.44-4-4.304-.938-1.865-1.406-4.03-1.406-6.494 0-2.496.468-4.677 1.405-6.543.936-1.864 2.27-3.299 4.001-4.304 1.73-1.005 3.74-1.508 6.026-1.508 2.286 0 4.294.503 6.025 1.508 1.73 1.006 3.064 2.44 4 4.304.937 1.866 1.406 4.046 1.406 6.543 0 2.465-.469 4.63-1.405 6.494-.937 1.865-2.27 3.3-4.001 4.304-1.731 1.006-3.74 1.508-6.025 1.508-2.286 0-4.295-.503-6.026-1.508zm10.908-4.524c1.127-1.426 1.69-3.518 1.69-6.275 0-2.724-.57-4.807-1.714-6.25-1.143-1.443-2.762-2.165-4.858-2.165-2.096 0-3.715.722-4.858 2.165-1.144 1.443-1.715 3.526-1.715 6.25 0 2.757.563 4.849 1.69 6.275 1.127 1.427 2.755 2.14 4.883 2.14 2.126 0 3.754-.713 4.882-2.14zm31.626-17.9c.429.422.643 1.006.643 1.751v19.798c0 .68-.222 1.232-.667 1.654-.445.42-1.032.632-1.762.632-.667 0-1.207-.203-1.62-.608-.413-.405-.619-.948-.619-1.63v-1.848c-.73 1.362-1.739 2.4-3.024 3.113-1.286.714-2.723 1.07-4.31 1.07-5.653 0-8.479-3.178-8.479-9.534V12.743c0-.745.215-1.329.644-1.75.428-.422 1.024-.633 1.786-.633.73 0 1.31.211 1.738.632.43.422.644 1.006.644 1.751v12.599c0 1.914.38 3.325 1.143 4.232.762.908 1.936 1.362 3.524 1.362 1.874 0 3.374-.616 4.502-1.848 1.127-1.232 1.691-2.87 1.691-4.913V12.743c0-.713.222-1.289.667-1.726.444-.438 1.031-.657 1.762-.657.729 0 1.309.211 1.737.632zm21.838 1.362c0 .714-.175 1.25-.524 1.606-.35.357-.953.567-1.81.632l-1.429.146c-2 .194-3.485.908-4.454 2.14-.968 1.232-1.452 2.724-1.452 4.475v11.139c0 .778-.222 1.361-.667 1.751-.445.39-1.016.584-1.715.584-.698 0-1.278-.195-1.738-.584-.461-.39-.69-.973-.69-1.752V12.696c0-.746.229-1.321.69-1.727.46-.405 1.04-.608 1.738-.608.635 0 1.168.203 1.596.608.429.406.643.965.643 1.678v2.335c.634-1.426 1.555-2.513 2.762-3.259 1.207-.745 2.572-1.183 4.096-1.313l.667-.049c1.525-.097 2.287.568 2.287 1.994zm23.815 7.491v12.647c0 .747-.215 1.322-.643 1.727-.429.405-1.024.608-1.786.608-.731 0-1.31-.212-1.739-.632-.429-.421-.643-.99-.643-1.703V20.088c0-2.01-.389-3.485-1.166-4.426-.78-.94-1.994-1.41-3.645-1.41-1.937 0-3.493.616-4.667 1.848-1.175 1.232-1.763 2.886-1.763 4.961v11.43c0 .715-.215 1.282-.642 1.704-.43.42-1.01.632-1.74.632s-1.317-.212-1.762-.632c-.445-.421-.667-.99-.667-1.703V12.695c0-.681.23-1.24.69-1.679.46-.437 1.04-.656 1.739-.656.698 0 1.254.211 1.667.632.413.421.62.973.62 1.654v1.994c.761-1.426 1.825-2.513 3.19-3.259 1.366-.745 2.907-1.118 4.621-1.118 5.557 0 8.336 3.194 8.336 9.582zm25.862 9.291c.286.357.429.81.429 1.362 0 .94-.571 1.735-1.715 2.383a14.928 14.928 0 01-3.643 1.508c-1.318.356-2.581.535-3.787.535-3.684 0-6.59-1.094-8.717-3.283-2.127-2.189-3.191-5.18-3.191-8.975 0-2.432.469-4.588 1.406-6.469.935-1.88 2.254-3.34 3.953-4.378 1.698-1.037 3.628-1.556 5.787-1.556 3.112 0 5.572 1.021 7.382 3.064 1.81 2.043 2.716 4.8 2.716 8.269 0 1.297-.572 1.945-1.715 1.945h-14.718c.317 5.027 2.683 7.54 7.097 7.54 1.174 0 2.191-.162 3.048-.487a21.855 21.855 0 002.715-1.264c.095-.065.358-.203.786-.414.429-.21.785-.317 1.071-.317.445.002.811.18 1.096.537zM122.884 15.66c-1.112 1.2-1.779 2.887-2.001 5.06h12.29c-.096-2.206-.644-3.9-1.644-5.084-1-1.183-2.405-1.775-4.215-1.775-1.842 0-3.319.6-4.43 1.8zm36.746-4.912a2.18 2.18 0 011.168-.34c.602 0 1.134.211 1.595.632.46.422.691.924.691 1.508 0 .325-.064.632-.191.925L149.652 42.17c-.19.454-.47.803-.834 1.047a2.067 2.067 0 01-1.166.364c-.572 0-1.088-.195-1.549-.584-.46-.389-.69-.875-.69-1.459 0-.26.079-.584.238-.973l3.287-7.15-9.193-19.943a1.95 1.95 0 01-.191-.876c0-.615.254-1.134.763-1.556a2.614 2.614 0 011.714-.632c.953 0 1.635.454 2.048 1.361l7.383 16.733 7.335-16.684c.191-.485.468-.842.833-1.07z" fill="#fff"/></svg>