<svg xmlns="http://www.w3.org/2000/svg" width="68" height="68" fill="#252826"><path d="M34 48c-3.57 0-6.51-2.94-6.51-6.51h-1.96c0 4.34 3.29 7.91 7.49 8.4v4.34h1.96v-4.34c4.2-.49 7.49-4.06 7.49-8.4 0-4.69-3.78-8.47-8.47-8.47-3.57 0-6.51-2.94-6.51-6.51S30.43 20 34 20s6.51 2.94 6.51 6.51h1.96c0-4.34-3.29-7.91-7.49-8.4v-4.34h-1.96v4.34c-4.2.49-7.49 4.06-7.49 8.4 0 4.69 3.78 8.47 8.47 8.47 3.57 0 6.51 2.94 6.51 6.51S37.57 48 34 48zm17.22 12.18c-12.32 8.12-28.91 6.44-39.34-4.06C1.1 45.41-.37 28.89 8.1 16.43l1.96 1.61 1.19-6.86-6.51 2.45 1.96 1.61C-2.54 28.4-1 46.04 10.48 57.52c6.44 6.44 14.98 9.73 23.59 9.73 6.37 0 12.67-1.82 18.27-5.46a1 1 0 00.28-1.33c-.35-.49-.91-.63-1.4-.28zm6.3-49.7C46.25-.79 28.61-2.47 15.45 6.42a1 1 0 00-.28 1.33 1 1 0 001.33.28C28.89-.3 45.55 1.31 56.12 11.88 66.9 22.59 68.37 39.11 59.9 51.57l-1.96-1.61-1.19 6.86 6.51-2.45-1.96-1.61c9.24-13.16 7.7-30.8-3.78-42.28z"/></svg>