<svg xmlns="http://www.w3.org/2000/svg" width="50" height="65" fill="#252826"><path d="M44.49 36.7l-3.97-12.9c-.37-1.15-1.41-1.93-2.61-1.93H11.49c-1.2 0-2.25.78-2.61 1.93L4.91 36.7c-2.77.63-4.86 2.72-4.86 5.22v10.03c0 2.61 2.3 4.8 5.27 5.33v4.49a2.93 2.93 0 002.93 2.93h2.14a2.93 2.93 0 002.93-2.93v-4.39h23.29v4.39a2.93 2.93 0 002.93 2.93h2.14a2.93 2.93 0 002.93-2.93v-4.6c2.72-.63 4.75-2.72 4.75-5.22V41.92c-.01-2.51-2.1-4.59-4.87-5.22zM6 36.49l3.86-12.38a1.68 1.68 0 011.62-1.2h26.43a1.68 1.68 0 011.62 1.2l3.87 12.38H6zm6.32 25.28c0 1.04-.84 1.88-1.93 1.88H8.25c-1.04 0-1.93-.84-1.93-1.88v-4.34h6.01l-.01 4.34zm31.29 0a1.88 1.88 0 01-1.88 1.88h-2.14c-1.04 0-1.93-.84-1.93-1.88v-4.34h5.95v4.34zm4.75-9.82c0 2.45-2.51 4.39-5.54 4.39H6.58c-3.03 0-5.54-1.98-5.54-4.39V41.92c0-2.45 2.45-4.39 5.54-4.39h36.25c3.03 0 5.54 1.98 5.54 4.39v10.03h-.01zM8.2 42.55c-2.51 0-4.54 2.04-4.54 4.54 0 2.51 2.04 4.54 4.54 4.54 2.51 0 4.54-2.04 4.54-4.54-.05-2.51-2.04-4.54-4.54-4.54zm0 8.04c-1.93 0-3.5-1.57-3.5-3.5s1.57-3.5 3.5-3.5 3.5 1.57 3.5 3.5-1.57 3.5-3.5 3.5zm32.27-8.04c-2.51 0-4.54 2.04-4.54 4.54 0 2.51 2.04 4.54 4.54 4.54 2.51 0 4.54-2.04 4.54-4.54-.05-2.51-2.03-4.54-4.54-4.54zm0 8.04c-1.93 0-3.5-1.57-3.5-3.5s1.57-3.5 3.55-3.5c1.93 0 3.5 1.57 3.5 3.5-.05 1.93-1.61 3.5-3.55 3.5zm-8.67-5.01H16.81c-.26.05-.42.37-.37.63.05.16.21.31.37.37H31.8c.26-.05.42-.37.37-.63 0-.22-.16-.37-.37-.37zm0 2.35H16.81c-.26.1-.42.37-.37.63.05.16.21.31.37.37H31.8c.26-.1.42-.37.37-.63-.05-.21-.16-.37-.37-.37zm0 2.3H16.81c-.26.05-.42.37-.37.63.05.16.21.31.37.37H31.8c.26-.05.42-.37.37-.63 0-.17-.16-.32-.37-.37zm-3.99-36.74c-.62.57-1.43.91-2.44 1.01v1.37c0 .14-.04.26-.12.35s-.19.14-.34.14c-.13 0-.24-.05-.33-.14s-.13-.21-.13-.35v-1.36c-.66-.03-1.32-.16-1.98-.39-.65-.23-1.19-.56-1.62-.98a.62.62 0 01-.2-.47.54.54 0 01.09-.31.27.27 0 01.24-.13c.11 0 .23.05.38.16 1.12.83 2.27 1.24 3.43 1.24.92 0 1.63-.2 2.15-.6s.78-.96.78-1.68c0-.43-.13-.77-.39-1.04s-.59-.47-.98-.61-.93-.3-1.6-.47l-2-.61a3.15 3.15 0 01-1.29-.93c-.35-.42-.53-.98-.53-1.69a2.97 2.97 0 01.44-1.59c.29-.47.71-.86 1.25-1.14.54-.29 1.15-.45 1.84-.5V1.4c0-.14.04-.26.12-.35s.19-.14.34-.14c.13 0 .24.05.32.14s.12.21.12.35v1.36c.6.05 1.18.2 1.73.43s1.02.55 1.39.95c.14.14.21.3.21.47a.49.49 0 01-.11.31c-.07.09-.15.13-.24.13-.13 0-.26-.05-.38-.16-.51-.44-1-.75-1.47-.95s-1.02-.29-1.65-.29c-.89 0-1.6.21-2.13.63-.52.42-.78.99-.78 1.71 0 .49.14.89.43 1.19.28.31.63.53 1.05.69.42.15.98.32 1.68.49l1.92.58c.48.19.89.48 1.23.87.33.39.5.91.5 1.56 0 .84-.31 1.55-.93 2.12z"/></svg>