<svg xmlns="http://www.w3.org/2000/svg" width="76" height="61" fill="none"><path d="M74.901 5.929L33.223 47.152c-.546.546-1.183.819-1.911.819s-1.456-.273-1.911-.819L12.748 30.317c-1.001-1.092-.91-2.821.273-3.822 1.001-.91 2.548-.91 3.64 0l14.742 14.924L71.079 2.107c1.092-1.001 2.821-.91 3.822.182 1.001 1.001 1.001 2.548 0 3.64z" fill="#1ba67a"/><path d="M57.975 30.135a2.68 2.68 0 00-2.73 2.73v22.386H5.559V5.656h50.414a2.68 2.68 0 002.73-2.73 2.68 2.68 0 00-2.73-2.73H2.829a2.68 2.68 0 00-2.73 2.73v55.055a2.68 2.68 0 002.73 2.73h55.055a2.68 2.68 0 002.73-2.73V32.865c.091-1.547-1.183-2.73-2.639-2.73z" fill="#fff"/></svg>