<svg width="75" height="75" fill="none" xmlns="http://www.w3.org/2000/svg"><path d="M61.725 47.641l-.173.093c-1.377-1.553-3.663-2.132-5.418-1.242a.127.127 0 00-.023.012l-.636.342a5.986 5.986 0 00-6.741-.53l-4.047 2.2H39.29a7.662 7.662 0 01-3.316-.759l-.75-.363a13.07 13.07 0 00-13.603 1.329 1.175 1.175 0 00-.065.053l-1.81 1.611a6.068 6.068 0 01-2.09 1.215l-.966-3.171a1.025 1.025 0 00-.982-.727H6.955a1.025 1.025 0 00-1.018 1.15L8.855 72.78a1.025 1.025 0 001.018.902h13.13a1.026 1.026 0 00.982-1.325l-1.68-5.507 5.232-3.307a3.028 3.028 0 012.2-.282l.063.014 10.93 2.013c3.014.54 6.122.1 8.869-1.252.043-.022.085-.046.125-.074l18.901-12.978a1.025 1.025 0 00.299-1.374 5.399 5.399 0 00-7.199-1.969zm-4.654.675c.825-.413 1.846-.137 2.58.444l-6.9 3.722-.21.11a6.428 6.428 0 00-.778-1.417l5.308-2.86zm-7.346-.204l.024-.014a3.933 3.933 0 013.667-.142l-3.185 1.716a6.413 6.413 0 00-1.776-.87l1.27-.69zM10.781 71.63L8.113 49.755h6.836l6.67 21.876H10.78zm37.844-9.402a12.286 12.286 0 01-7.527 1.041l-10.895-2.007a5.068 5.068 0 00-3.737.531l-4.781 3.022-3.43-11.25a8.121 8.121 0 002.855-1.646l1.777-1.583a11.029 11.029 0 0111.445-1.096l.75.363a9.72 9.72 0 004.208.964h7.27a4.389 4.389 0 014.245 3.3l-4.995-.225a31.765 31.765 0 00-5.772.267 1.024 1.024 0 00-.485 1.837 1.024 1.024 0 00.766.194 29.677 29.677 0 015.399-.25l6.2.281.047.001a1.025 1.025 0 001.025-1.025c0-.09-.003-.18-.007-.27l.733-.386 8.983-4.846a3.35 3.35 0 013.854.473l-17.928 12.31z" fill="#000"/><path d="M12.975 68.47a2.777 2.777 0 105.553 0 2.777 2.777 0 00-5.553 0zm2.776-.725a.726.726 0 110 1.45.726.726 0 010-1.45zm37.707-47.022H52.33a8.934 8.934 0 00-8.924 8.924v1.128a1.025 1.025 0 001.026 1.025h1.128a8.934 8.934 0 008.923-8.924v-1.128a1.025 1.025 0 00-1.025-1.025zm-1.025 2.153a6.88 6.88 0 01-6.873 6.873h-.103v-.102a6.881 6.881 0 016.873-6.873h.103v.102zM41.853 7.18a1.555 1.555 0 011.553 1.553 1.025 1.025 0 102.051 0 3.61 3.61 0 00-2.579-3.455v-.541a1.025 1.025 0 00-2.05 0v.54a3.604 3.604 0 001.025 7.06 1.553 1.553 0 11.018 3.107l-.018-.001h-.019a1.556 1.556 0 01-1.535-1.552 1.025 1.025 0 10-2.05 0 3.61 3.61 0 002.578 3.455v.658a1.026 1.026 0 102.051 0v-.658a3.604 3.604 0 00-1.025-7.06 1.554 1.554 0 110-3.107z" fill="#000"/><path d="M41.852 1.318a10.053 10.053 0 00-1.026 20.053v11.947a1.025 1.025 0 102.051 0V21.371a10.053 10.053 0 00-1.025-20.053zm0 18.054a8.001 8.001 0 118.001-8.001 8.01 8.01 0 01-8.001 8z" fill="#000"/><path d="M38.144 31.8h1.128a1.025 1.025 0 001.026-1.025v-1.128a8.933 8.933 0 00-8.924-8.924h-1.128a1.025 1.025 0 00-1.025 1.026v1.128a8.934 8.934 0 008.923 8.924zm-6.873-9.026h.103a6.88 6.88 0 016.873 6.873v.103h-.103a6.881 6.881 0 01-6.873-6.874v-.102zm10.581 17.91a1.025 1.025 0 001.026-1.025v-2.782a1.025 1.025 0 10-2.05 0v2.782a1.026 1.026 0 001.024 1.025zm-1.025 5.696a1.026 1.026 0 002.05 0v-3.54a1.025 1.025 0 10-2.05 0v3.54z" fill="#000"/></svg>