<svg xmlns="http://www.w3.org/2000/svg" width="73" height="63" fill="#fff"><path d="M45.17 61.18c-.607 0-1.127-.087-1.734-.173-1.04-.26-1.907-.607-2.774-1.213a6.76 6.76 0 01-2.601-4.68v-.52h.434c.867 0 1.734.26 2.601.52s1.734.693 2.428 1.213a8.68 8.68 0 012.081 1.906 6.24 6.24 0 011.3 2.34l.173.433-.433.087c-.52 0-1.04.087-1.474.087z"/><path d="M38.841 55.374c.26 1.473 1.04 2.86 2.254 3.726 1.387 1.04 3.208 1.473 4.942 1.213-.26-.607-.607-1.126-1.04-1.646-.52-.693-1.214-1.213-1.907-1.733s-1.474-.867-2.254-1.127c-.694-.26-1.3-.347-1.994-.433zm-.867 0v-.433c.173-1.733.78-3.38 1.821-4.853.434-.693 1.04-1.213 1.647-1.733a8.183 8.183 0 011.907-1.04l.433-.173.087.433a6.56 6.56 0 010 2.6 7.04 7.04 0 01-1.04 2.513c-.52.78-1.214 1.386-1.907 1.82a6.54 6.54 0 01-2.514.78l-.434.087z"/><path d="M43.263 48.182l-1.3.78c-.607.433-1.127 1.04-1.561 1.647-.867 1.127-1.474 2.513-1.647 3.986.607-.087 1.214-.347 1.821-.607.694-.433 1.3-.953 1.734-1.646s.78-1.386.867-2.166.173-1.387.087-1.993zm8.323 10.659c-1.04 0-1.994-.26-2.948-.693-1.734-.78-3.034-2.166-3.641-3.986l-.087-.433h.434c.867-.087 1.734-.087 2.601-.087.954.173 1.821.347 2.688.693 1.734.607 3.208 1.82 4.248 3.38l.26.347-.434.173a8.005 8.005 0 01-3.121.607z"/><path d="M45.863 54.421c.52 1.386 1.647 2.513 3.034 3.12 1.647.693 3.381.78 5.029.173-.954-1.213-2.167-2.166-3.641-2.686-.78-.26-1.647-.52-2.514-.607a6.991 6.991 0 00-1.907 0zm-.78.087l-.087-.433c-.26-1.733 0-3.466.694-5.113.607-1.386 1.561-2.6 2.861-3.466l.347-.173.173.433c.694 1.647.78 3.553.173 5.199-.347.867-.867 1.56-1.474 2.166s-1.474 1.04-2.254 1.386h-.433z"/><path d="M48.638 46.362c-.954.78-1.734 1.733-2.167 2.946-.607 1.386-.867 2.86-.694 4.246a4.92 4.92 0 001.561-1.04c.607-.52 1.04-1.213 1.3-1.993.52-1.3.52-2.773 0-4.16zm8.756 8.752c-.434 0-.867 0-1.3-.087a6.543 6.543 0 01-4.422-3.12l-.26-.347.433-.173a9.51 9.51 0 015.375-.52c1.821.26 3.555 1.04 4.855 2.34l.347.347-.434.173c-.867.607-1.821 1.04-2.861 1.213-.52.087-1.127.173-1.734.173z"/><path d="M52.539 51.908a6.229 6.229 0 003.641 2.426c.954.173 1.821.173 2.774-.087.78-.173 1.474-.433 2.167-.867-1.127-.953-2.601-1.647-4.075-1.82-1.474-.26-3.034-.173-4.508.347z"/><path d="M51.846 52.254l-.173-.433c-.607-1.646-.78-3.38-.434-5.113.087-.78.347-1.56.78-2.34.347-.693.78-1.213 1.3-1.733l.347-.26.26.347c1.04 1.473 1.474 3.206 1.3 5.026-.26 1.82-1.387 3.38-2.948 4.333l-.433.173z"/><path d="M53.406 43.416a3.63 3.63 0 00-.78 1.213c-.347.693-.607 1.387-.694 2.08a9.143 9.143 0 00.26 4.333c1.127-.867 1.994-2.08 2.168-3.553.173-1.386-.173-2.86-.954-4.073zm9.104 6.845c-1.821 0-3.555-.693-4.855-2.08l-.26-.26.347-.26a8.62 8.62 0 012.341-1.213 7.4 7.4 0 012.688-.52c.954-.087 1.821 0 2.774.173.867.173 1.734.52 2.428 1.04l.347.26-.26.26-1.127 1.04a4.38 4.38 0 01-1.387.78 8.718 8.718 0 01-3.034.78z"/><path d="M58.521 48.008c1.127 1.04 2.601 1.56 4.161 1.56.954 0 1.821-.26 2.688-.693a5.532 5.532 0 001.214-.693c.26-.173.52-.433.694-.607-.607-.347-1.214-.52-1.821-.693-.867-.173-1.734-.26-2.601-.173s-1.734.26-2.514.52c-.694.087-1.3.433-1.821.78z"/><path d="M57.915 48.528l-.26-.347c-.954-1.473-1.474-3.206-1.561-4.94 0-.78.087-1.646.26-2.426.087-.347.173-.693.347-1.04.087-.347.26-.693.52-.953l.26-.347.347.26c.607.607 1.214 1.3 1.647 2.08s.694 1.646.78 2.6c.087.867-.087 1.82-.347 2.686a7.372 7.372 0 01-1.474 2.166l-.52.26z"/><path d="M57.568 39.603c-.087.173-.173.26-.173.433-.173.26-.26.607-.347.953a8.496 8.496 0 00.954 6.326c.434-.52.78-1.04 1.04-1.647.26-.78.433-1.56.347-2.34s-.26-1.56-.694-2.253c-.347-.52-.694-1.04-1.127-1.473zm8.756 4.766c-1.3 0-2.601-.433-3.641-1.126l-.347-.26.347-.347c.607-.607 1.3-1.213 1.994-1.647.433-.26.78-.433 1.214-.607l1.3-.52a8.16 8.16 0 015.375 0l.433.173-.26.347c-1.04 1.82-2.774 3.12-4.768 3.726-.52.173-1.04.26-1.647.26z"/><path d="M63.463 42.896c1.3.78 2.861.953 4.335.607a6.983 6.983 0 004.075-2.946c-1.474-.347-3.035-.347-4.508.087-.433.087-.78.26-1.214.433a4.67 4.67 0 00-1.127.607c-.52.26-1.04.693-1.561 1.213zm-.52.519l-.347-.26c-1.214-1.213-2.167-2.773-2.601-4.506-.433-1.473-.433-3.033.087-4.506l.173-.433.347.173c1.561.867 2.774 2.253 3.294 3.986.173.433.26.953.26 1.386s0 .867-.087 1.3a4.94 4.94 0 01-.954 2.426l-.173.433z"/><path d="M60.689 34.836c-.26 1.213-.26 2.513.087 3.726.347 1.386 1.127 2.686 2.081 3.813.26-.52.434-1.126.52-1.82.087-.347.087-.78.087-1.126s-.087-.78-.173-1.127a6.21 6.21 0 00-2.601-3.466z"/><path d="M38.407 55.288v-.693c2.688-.087 5.375-.433 7.89-1.126 2.601-.693 5.029-1.733 7.369-3.12s4.422-2.946 6.329-4.853 3.555-3.986 4.942-6.326l.607.347c-1.387 2.34-3.121 4.506-5.028 6.413-1.994 1.906-4.161 3.553-6.502 4.94s-4.942 2.426-7.543 3.206-5.289 1.213-8.063 1.213z"/><path d="M65.024 39.862l-.087-.433c-.173-.867-.173-1.733-.087-2.6s.26-1.733.607-2.513.78-1.56 1.387-2.166c.52-.693 1.127-1.213 1.821-1.733l.347-.26.173.433a8.87 8.87 0 01.694 2.6c0 .953-.173 1.906-.52 2.86-.433.867-.954 1.647-1.647 2.34-.694.607-1.474 1.127-2.341 1.386l-.347.087z"/><path d="M68.665 31.197c-.52.433-.954.867-1.3 1.387-.52.607-.954 1.3-1.214 2.08a5.05 5.05 0 00-.52 2.253 7.02 7.02 0 000 1.906c.607-.26 1.127-.607 1.647-1.04.607-.607 1.127-1.3 1.474-2.166.26-.78.433-1.647.433-2.513-.087-.607-.26-1.213-.52-1.906zM34.939 55.374l-.434-.087a6.55 6.55 0 01-2.514-.78c-.78-.52-1.474-1.127-1.994-1.82-.52-.78-.867-1.56-1.04-2.513a6.56 6.56 0 010-2.6l.087-.433.433.173c.694.26 1.3.607 1.907 1.04.607.52 1.214 1.04 1.647 1.733 1.04 1.386 1.734 3.12 1.821 4.853l.087.433z"/><path d="M29.738 48.182c-.087.607-.087 1.3.087 1.906.087.78.433 1.56.867 2.166.434.693 1.04 1.213 1.734 1.647.52.26 1.127.52 1.734.607-.173-1.473-.78-2.773-1.647-3.986-.434-.607-.954-1.127-1.561-1.647a5.53 5.53 0 00-1.214-.693zM27.83 61.18c-.434 0-.954 0-1.387-.087l-.434-.087.173-.433c.26-.867.78-1.646 1.3-2.34.607-.693 1.3-1.3 2.081-1.906.78-.52 1.561-.953 2.514-1.213a6.954 6.954 0 012.601-.52h.433v.433c-.173 1.906-1.127 3.553-2.601 4.679-.867.607-1.821 1.04-2.861 1.213-.694.173-1.214.26-1.821.26z"/><path d="M26.963 60.4c.78.087 1.647.087 2.428-.173.867-.173 1.734-.607 2.514-1.126 1.214-.953 1.994-2.253 2.254-3.726-.694.087-1.3.26-1.907.433-.78.26-1.561.607-2.341 1.127-.694.52-1.387 1.04-1.907 1.733a7.106 7.106 0 00-1.04 1.733zm.954-5.892l-.433-.087c-.867-.26-1.647-.693-2.254-1.386a4.88 4.88 0 01-1.474-2.253c-.607-1.646-.607-3.553.173-5.199l.173-.433.347.173c1.301.866 2.254 2.08 2.861 3.466.694 1.646.954 3.38.694 5.113l-.087.607z"/><path d="M24.362 46.362a5.97 5.97 0 000 4.246 4.18 4.18 0 001.3 1.907 4.92 4.92 0 001.56 1.04 9.96 9.96 0 00-.694-4.246c-.433-1.127-1.214-2.166-2.167-2.946zM21.415 58.84c-1.04 0-2.168-.173-3.121-.607l-.433-.173.26-.347c1.04-1.56 2.514-2.686 4.248-3.38.433-.173.867-.347 1.3-.433l1.3-.26c.867-.087 1.734-.087 2.601.087h.433l-.173.433c-.52 1.82-1.821 3.293-3.555 3.986a6.343 6.343 0 01-2.861.693z"/><path d="M18.987 57.714a6.726 6.726 0 005.029-.173c1.387-.607 2.514-1.733 3.035-3.12a7.65 7.65 0 00-1.994 0l-1.214.26c-.433.087-.867.26-1.3.347-1.387.52-2.601 1.473-3.555 2.686zm2.167-5.46l-.347-.26c-1.561-.953-2.601-2.513-2.948-4.333-.173-1.733.26-3.553 1.3-5.026l.26-.347.347.26c.52.52.954 1.04 1.3 1.733s.694 1.56.78 2.34c.347 1.733.173 3.466-.433 5.113l-.26.52z"/><path d="M18.553 47.575a5.9 5.9 0 002.168 3.553c.433-1.386.52-2.86.26-4.333a5.904 5.904 0 00-.694-2.08 5.182 5.182 0 00-.78-1.3c-.78 1.3-1.04 2.773-.954 4.16zm-2.947 7.539c-.607 0-1.127-.087-1.734-.173a10.544 10.544 0 01-2.861-1.213l-.347-.26.347-.347c1.3-1.3 3.034-2.08 4.855-2.34s3.641-.087 5.289.52l.434.173-.26.347a6.543 6.543 0 01-4.422 3.12c-.433.173-.867.173-1.3.173z"/><path d="M11.791 53.294c.694.433 1.474.693 2.168.953.867.173 1.821.173 2.774.087 1.474-.26 2.774-1.127 3.641-2.426-1.474-.52-3.034-.607-4.508-.347-1.474.173-2.948.78-4.075 1.733zm3.295-4.766l-.26-.347a7.4 7.4 0 01-1.474-2.166c-.347-.867-.433-1.733-.433-2.686.087-.953.347-1.82.78-2.6s.954-1.473 1.647-2.08l.347-.26.26.347.52.953c.173.347.26.693.347 1.04a10.98 10.98 0 01.26 2.426c-.087 1.733-.607 3.466-1.561 4.94l-.433.433z"/><path d="M15.432 39.603c-.434.433-.867.953-1.127 1.56-.434.693-.607 1.473-.694 2.253s.087 1.56.347 2.34c.26.607.607 1.127.954 1.56a8.496 8.496 0 00.954-6.326l-.26-.953a.664.664 0 00-.173-.433zm-4.941 10.658h-.173c-1.04 0-1.994-.26-2.948-.693l-1.3-.867-1.214-1.04-.347-.347.347-.26c.78-.52 1.561-.867 2.428-1.04.954-.173 1.821-.26 2.774-.173s1.821.26 2.688.607c.867.26 1.647.693 2.341 1.213l.347.26-.26.26c-1.127 1.3-2.861 2.08-4.682 2.08z"/><path d="M10.404 49.481c1.56 0 3.034-.52 4.162-1.56-.52-.347-1.127-.693-1.821-.867a11.76 11.76 0 00-2.514-.52c-.867-.087-1.734 0-2.601.173-.607.173-1.3.347-1.821.693.26.26.52.433.78.693a5.53 5.53 0 001.214.693c.694.433 1.647.693 2.601.693zm-.347-6.066l-.26-.347a4.94 4.94 0 01-.954-2.426c-.087-.433-.087-.867-.087-1.3s.173-.953.26-1.387c.52-1.733 1.734-3.12 3.295-3.986l.347-.173.173.433c.52 1.473.52 3.033.087 4.506-.434 1.733-1.387 3.206-2.601 4.506l-.26.173z"/><path d="M12.311 34.836c-1.214.78-2.167 1.907-2.601 3.293l-.26 1.213c0 .433.087.78.087 1.213.087.607.26 1.213.607 1.82.954-1.126 1.647-2.426 1.994-3.813.433-1.213.433-2.513.173-3.726zm-5.635 9.533c-.52 0-1.127-.087-1.647-.173-1.994-.52-3.728-1.907-4.768-3.726L0 40.036l.433-.173a8.16 8.16 0 015.375 0l1.3.52c.434.173.867.347 1.214.607.694.433 1.387 1.04 1.994 1.647l.347.347-.347.26c-1.127.78-2.341 1.127-3.641 1.127z"/><path d="M1.127 40.469c.954 1.473 2.341 2.513 4.075 2.946 1.474.347 3.034.173 4.335-.607l-1.561-1.213c-.347-.26-.78-.433-1.127-.607-.433-.173-.78-.347-1.214-.433-1.474-.433-3.034-.52-4.508-.087z"/><path d="M34.593 55.288c-2.774-.087-5.462-.433-8.15-1.127-2.601-.78-5.202-1.82-7.543-3.206s-4.508-3.033-6.502-4.94-3.641-4.073-5.029-6.413l.607-.347c1.387 2.34 3.034 4.42 4.942 6.326s4.075 3.466 6.329 4.853a36.9 36.9 0 007.369 3.12c2.601.693 5.289 1.04 7.89 1.127l.087.607z"/><path d="M7.976 39.862l-.433-.173c-.867-.347-1.647-.78-2.254-1.387-.694-.693-1.214-1.473-1.647-2.34a7.5 7.5 0 01-.52-2.773c.087-.867.26-1.82.694-2.6l.173-.433.347.26c.694.52 1.3 1.04 1.821 1.733.607.693 1.04 1.386 1.3 2.253.347.78.52 1.646.607 2.513s.087 1.733-.087 2.513v.433z"/><path d="M4.335 35.703c.347.78.867 1.473 1.474 2.166.52.433 1.04.78 1.647 1.04a7.02 7.02 0 000-1.907c-.087-.78-.26-1.56-.607-2.34-.26-.78-.694-1.473-1.214-2.08-.347-.52-.867-.953-1.387-1.387-.26.607-.347 1.3-.433 1.906.087.953.173 1.82.52 2.6zM36.5 44.715c-11.878 0-21.588-9.619-21.588-21.578 0-11.872 9.623-21.578 21.588-21.578 11.878 0 21.588 9.706 21.588 21.578S48.378 44.715 36.5 44.715zm0-41.162c-10.837 0-19.594 8.752-19.594 19.585A19.57 19.57 0 0036.5 42.722c10.837 0 19.594-8.752 19.594-19.585A19.57 19.57 0 0036.5 3.553zm7.63 11.785l-8.41 19.325h-4.335l8.496-18.285H29.044v-3.293h15.172l-.087 2.253z"/></svg>