<svg width="51" height="61" fill="none" xmlns="http://www.w3.org/2000/svg"><path d="M5.49 52.99h14.79v2.61c0 2.871 2.348 5.22 5.22 5.22 2.87 0 5.22-2.349 5.22-5.22v-2.61h14.79c2.87 0 5.22-2.349 5.22-5.22 0-2.871-2.35-5.22-5.22-5.22h-.87V26.02c0-8.874-6.178-16.617-14.79-18.618V5.14A4.308 4.308 0 0025.5.79a4.308 4.308 0 00-4.35 4.35v2.262C12.537 9.403 6.36 17.146 6.36 26.02v16.53h-.87c-2.871 0-5.22 2.349-5.22 5.22 0 2.871 2.349 5.22 5.22 5.22zm23.49 2.61a3.49 3.49 0 01-3.48 3.48 3.49 3.49 0 01-3.48-3.48v-2.61h6.96v2.61zM5.49 44.29h1.74c.522 0 .87-.348.87-.87v-17.4A17.344 17.344 0 0122.194 8.968c.434-.087.696-.435.696-.87V5.14c0-1.479 1.13-2.61 2.61-2.61 1.479 0 2.61 1.131 2.61 2.61v2.958c0 .435.26.783.695.87A17.344 17.344 0 0142.9 26.02v17.4c0 .522.348.87.87.87h1.74a3.49 3.49 0 013.48 3.48 3.49 3.49 0 01-3.48 3.48H5.49a3.49 3.49 0 01-3.48-3.48 3.49 3.49 0 013.48-3.48z" fill="#fff"/></svg>