<svg xmlns="http://www.w3.org/2000/svg" width="75" height="75" fill="#fff"><path d="M18.769 32.779a2.281 2.281 0 100-4.562 2.281 2.281 0 100 4.562zm53.745-10.1a5.51 5.51 0 00-7.731-1.322 1.1 1.1 0 00-.262 1.531 1.1 1.1 0 001.531.262 3.33 3.33 0 014.668.798c.517.73.719 1.618.568 2.499a3.33 3.33 0 01-3.865 2.737 3.327 3.327 0 01-2.169-1.366 1.09 1.09 0 00-.276-.27c-3.328-4.786-8.469-8.221-14.42-9.302a11.58 11.58 0 00.039-.937A11.45 11.45 0 0039.15 5.863c-6.247 0-11.322 5.006-11.441 11.224l-9.271-6.264a1.1 1.1 0 00-1.714.91v8.845a22.662 22.662 0 00-9.144 9.191H5.175a3.712 3.712 0 00-3.708 3.708v13.714a3.712 3.712 0 003.708 3.708H7.58a22.52 22.52 0 007.577 8.26l5.561 8.882a4.65 4.65 0 003.964 2.195h5.216a4.682 4.682 0 004.677-4.677v-2.775h9.017v2.775a4.682 4.682 0 004.677 4.677h5.004a4.66 4.66 0 004.168-2.554l7.102-13.94a22.25 22.25 0 004.443-13.407 22.32 22.32 0 00-1.874-8.975 5.503 5.503 0 004.08-.949 5.51 5.51 0 002.262-3.592 5.51 5.51 0 00-.94-4.139zM41.39 18.408h-4.48c-1.744 0-3.162-1.419-3.162-3.162s1.418-3.162 3.162-3.162h1.141v-1.425A1.1 1.1 0 0139.15 9.56a1.1 1.1 0 011.099 1.099v1.425h3.205a1.1 1.1 0 011.099 1.099 1.1 1.1 0 01-1.099 1.099H36.91a.966.966 0 000 1.93h4.48c1.744 0 3.162 1.419 3.162 3.162s-1.419 3.162-3.162 3.162h-1.141v1.425a1.1 1.1 0 01-1.099 1.099 1.1 1.1 0 01-1.099-1.099v-1.425h-3.205a1.1 1.1 0 01-1.099-1.099 1.1 1.1 0 011.099-1.099h6.543a.966.966 0 000-1.93zm21.338 34.093a1.097 1.097 0 00-.118.196l-7.127 13.988a2.47 2.47 0 01-2.21 1.354H48.27a2.483 2.483 0 01-2.48-2.48v-3.874a1.1 1.1 0 00-1.099-1.099H33.477a1.1 1.1 0 00-1.099 1.099v3.874a2.483 2.483 0 01-2.48 2.48h-5.216c-.86 0-1.646-.435-2.102-1.164l-5.692-9.09a1.1 1.1 0 00-.342-.344 20.32 20.32 0 01-7.313-8.127 1.1 1.1 0 00-.984-.611H5.175a1.513 1.513 0 01-1.511-1.511V33.477c0-.833.678-1.511 1.511-1.511H8.25a1.1 1.1 0 00.984-.611 20.43 20.43 0 019.082-9.13 1.1 1.1 0 00.606-.982V13.8l9.018 6.093c.022.015.045.026.067.039a11.43 11.43 0 003.201 5.615h-2.294a1.1 1.1 0 00-1.099 1.099 1.1 1.1 0 001.099 1.099h21.671a1.1 1.1 0 001.099-1.099 1.1 1.1 0 00-1.099-1.099h-3.493a11.44 11.44 0 003.079-5.138c9.439 1.717 16.618 9.998 16.618 19.925A20.07 20.07 0 0162.728 52.5z"/></svg>