<svg width="59" height="59" fill="none" xmlns="http://www.w3.org/2000/svg"><circle cx="29.5" cy="29.5" r="28.75" stroke="#fff" stroke-width="1.5"/><path d="M26.587 35c.01-.948.088-1.766.234-2.454a5.786 5.786 0 01.766-1.859c.354-.552.833-1.104 1.438-1.656.479-.427.9-.839 1.265-1.235.375-.395.672-.807.89-1.234.22-.427.329-.906.329-1.438 0-.895-.219-1.578-.656-2.046-.438-.47-1.073-.703-1.907-.703-.687 0-1.307.213-1.859.64-.552.427-.833 1.12-.844 2.078h-4.312c.02-1.416.338-2.583.953-3.5a5.62 5.62 0 012.515-2.062c1.063-.459 2.245-.688 3.547-.688 2.157 0 3.839.526 5.047 1.578 1.209 1.053 1.813 2.558 1.813 4.516 0 .917-.183 1.73-.547 2.438a8.508 8.508 0 01-1.406 2 35.833 35.833 0 01-1.891 1.875c-.583.52-.98 1.078-1.188 1.671-.197.584-.307 1.276-.328 2.078h-3.859zm-.39 4.812c0-.646.213-1.188.64-1.625.438-.448 1.026-.672 1.766-.672.75 0 1.338.224 1.765.672.438.438.657.98.657 1.625 0 .646-.22 1.188-.657 1.625-.427.438-1.015.656-1.765.656-.74 0-1.329-.219-1.766-.656-.427-.438-.64-.98-.64-1.625z" fill="#fff"/></svg>