<svg xmlns="http://www.w3.org/2000/svg" width="98" height="59" fill="none"><path d="M75.397 21.365h-.33l-.99-13.641c-.165-3.451-2.97-6.081-6.434-6.081H30.357c-3.465 0-6.434 2.63-6.599 6.081l-.825 13.641h-.33c-2.805 0-4.949 2.137-4.949 4.93V42.73c0 1.808 1.485 3.287 3.3 3.287h1.65v8.217c0 1.808 1.485 3.287 3.3 3.287h3.3c1.815 0 3.3-1.479 3.3-3.287v-8.217h32.997v8.217c0 1.808 1.485 3.287 3.3 3.287h3.3c1.815 0 3.3-1.479 3.3-3.287v-8.217h1.65c1.815 0 3.3-1.479 3.3-3.287V26.295c0-2.794-2.145-4.93-4.949-4.93zM28.707 8.053c0-.822.825-1.479 1.65-1.479h37.286c.825 0 1.65.657 1.65 1.479l.825 13.312H27.882l.825-13.312zm40.916 28.103c-2.31 0-4.125-1.808-4.125-4.109s1.815-4.109 4.125-4.109 4.125 1.808 4.125 4.109-1.815 4.109-4.125 4.109zm-41.246 0c-2.31 0-4.125-1.808-4.125-4.109s1.815-4.109 4.125-4.109 4.125 1.808 4.125 4.109-1.815 4.109-4.125 4.109z" stroke="#fff" stroke-width="1.75" stroke-miterlimit="10"/><g fill="#fff"><path d="M85.791 12.983c2.64-.493 5.114-1.315 7.094-2.301 1.65-1.643 1.485-3.123 1.155-3.944a26.56 26.56 0 01-6.929 2.794c-.165 0-.495 0-.66-.164s-.165-.493-.165-.657.165-.329.495-.493c2.805-.657 5.279-1.643 7.259-3.123 1.155-1.479.825-3.287.66-4.109-.99 1.808-4.124 3.287-7.754 4.93s-7.919 3.616-9.899 6.081c-3.3 4.109-.33 7.889-.165 8.053.66.986 3.465 3.616 8.084 1.643 2.475-1.15 3.465-2.465 3.795-3.451l-3.795.493c-.33 0-.495-.164-.66-.329a.5.5 0 010-.657c.165-.164.33-.329.495-.329a16.68 16.68 0 004.124-.493c3.63-.986 4.125-3.123 4.125-4.437-1.98.986-4.29 1.808-6.764 2.137-.165 0-.495 0-.66-.164s-.165-.493-.165-.657c0-.657.165-.822.33-.822z"/><path d="M85.956 13.476c2.805-.493 5.115-1.315 7.259-2.465 2.145-1.972 1.65-3.78 1.155-4.766l-.165-.164h-.165c-1.98 1.315-4.29 2.301-7.094 2.958h-.165s-.165-.164 0-.329c0 0 0-.164.165-.164 2.97-.657 5.444-1.808 7.424-3.123 1.815-2.136.495-5.095.495-5.259C94.7 0 94.535 0 94.535 0c-.165 0-.165 0-.165.164-.495 1.808-3.96 3.451-7.754 5.095s-7.919 3.616-10.064 6.245c-3.465 4.273-.495 8.217-.33 8.546.66 1.151 2.64 2.63 5.114 2.63.99 0 2.145-.164 3.465-.822 2.97-1.315 3.96-2.958 4.125-4.109v-.164h-.165c-1.32.329-2.64.493-4.125.493-.165 0-.165 0-.165-.164v-.329s0-.164.165-.164c1.485 0 2.97-.164 4.29-.493 4.125-1.15 4.62-3.78 4.454-5.259 0 0 0-.164-.165-.164h-.165c-1.98 1.15-4.455 1.808-6.929 2.301h-.165c-.165-.164-.165-.164 0-.329-.165 0-.165 0 0 0z"/><path d="M85.461 14.134c.165.164.33.329.66.164 2.475-.493 4.949-1.15 6.764-2.136 0 1.315-.66 3.451-4.125 4.437a17.67 17.67 0 01-4.125.493c-.165 0-.495.164-.495.329a.5.5 0 000 .657c.165.164.33.329.66.329 1.32 0 2.64-.164 3.795-.493-.33.986-1.32 2.465-3.795 3.451-4.62 1.972-7.424-.657-8.084-1.643-.165-.164-3.135-3.78.165-8.053 1.98-2.465 6.269-4.437 9.899-6.081s6.764-3.123 7.754-4.93c.33.822.495 2.794-.66 4.109a22.527 22.527 0 01-7.259 3.123c-.165 0-.33.164-.495.493 0 .164 0 .493.165.657s.33.164.66.164a26.462 26.462 0 006.929-2.794c.33.822.66 2.301-1.155 3.944-1.98 1.151-4.29 1.972-7.094 2.301-.165 0-.495.164-.495.329.165.657.165.822.33 1.15zM11.549 5.752C7.919 4.109 4.784 2.63 3.795.822c-.165.986-.495 2.794.66 4.273a22.527 22.527 0 007.259 3.123c.165 0 .33.164.495.493 0 .164 0 .493-.165.657-.165 0-.495.164-.66 0a26.476 26.476 0 01-6.929-2.794c-.495.822-.66 2.301.99 3.944 1.98 1.15 4.455 1.972 7.094 2.465.165 0 .495.164.495.329.165.164 0 .493-.165.657-.165.329-.33.329-.66.329-2.475-.493-4.785-1.15-6.764-2.136 0 1.315.66 3.451 4.125 4.437a17.67 17.67 0 004.125.493c.165 0 .495.164.495.329a.5.5 0 010 .657c-.165.164-.33.329-.66.329-1.32 0-2.64-.164-3.795-.493.33.986 1.32 2.465 3.795 3.451 4.62 1.972 7.424-.657 8.084-1.643.165-.164 3.135-3.78-.165-8.053-1.98-2.301-6.104-4.273-9.899-5.916z"/><path d="M11.879 5.259C8.084 3.616 4.619 1.972 4.124.164 3.959 0 3.959 0 3.794 0c0 0-.165 0-.165.164s-1.32 2.958.495 5.259c2.145 1.315 4.62 2.465 7.424 3.123 0 0 .165 0 .165.164v.329h-.165c-2.64-.657-5.114-1.643-7.094-2.958h-.165s-.165 0-.165.164c-.495.822-.99 2.63.99 4.602 1.98 1.15 4.455 1.972 7.259 2.465 0 0 .165 0 .165.164v.329s-.165.164-.165 0c-2.64-.493-5.114-1.15-7.094-2.301h-.165l-.165.164c0 1.479.33 4.109 4.455 5.423 1.32.329 2.805.493 4.29.493 0 0 .165 0 .165.164v.329l-.165.164c-1.485 0-2.805-.164-4.125-.493h-.165v.164c.33 1.151 1.155 2.794 4.125 4.109 1.32.493 2.475.822 3.465.822 2.64 0 4.455-1.315 5.115-2.629.165-.329 3.3-4.273-.33-8.546-1.98-2.794-6.269-4.602-9.899-6.409z"/><path d="M21.778 19.886c-.66 1.151-3.465 3.616-8.084 1.643-2.475-1.15-3.465-2.465-3.795-3.451l3.795.493c.33 0 .495-.164.66-.329a.5.5 0 000-.657c-.165-.164-.33-.329-.495-.329-1.485 0-2.805-.164-4.125-.493-3.63-1.15-4.29-3.287-4.29-4.602 1.98.986 4.29 1.643 6.764 2.137.165 0 .495 0 .66-.164s.165-.493.165-.657-.33-.329-.495-.329c-2.64-.657-5.114-1.479-7.094-2.629C3.795 8.875 3.96 7.396 4.29 6.574a26.56 26.56 0 006.929 2.794c.165 0 .495 0 .66-.164s.165-.493.165-.657-.165-.329-.495-.493C8.744 7.396 6.269 6.41 4.29 4.93 3.3 3.616 3.63 1.808 3.795.822c.99 1.808 4.125 3.287 7.754 4.93s7.919 3.616 9.899 6.081a6.186 6.186 0 01.33 8.053z"/></g></svg>