<svg width="71" height="53" fill="none" xmlns="http://www.w3.org/2000/svg"><path d="M16.6 25.225a5.025 5.025 0 100 10.05 5.025 5.025 0 000-10.05zm0 8.475a3.525 3.525 0 110-7.05 3.525 3.525 0 010 7.05zm37.8-8.475a5.025 5.025 0 100 10.05 5.025 5.025 0 000-10.05zm0 8.475a3.525 3.525 0 110-7.05 3.525 3.525 0 010 7.05zm-12.3-4.275H28.9a.75.75 0 000 1.5h13.2a.75.75 0 100-1.5z" fill="#000"/><path d="M70.15 18.475V16.3a3 3 0 00-3-3h-7.8l-4.2-9.45A5.25 5.25 0 0050.35.7h-30a5.25 5.25 0 00-4.95 3.525L12.175 13.3H3.85a3 3 0 00-3 3v2.175a3 3 0 003 3H6.4A6.75 6.75 0 004.15 26.5v23.55A2.25 2.25 0 006.4 52.3h8.1a2.25 2.25 0 002.25-2.25v-7.875h37.5v7.875a2.25 2.25 0 002.25 2.25h8.1a2.25 2.25 0 002.25-2.25V26.2a6.75 6.75 0 00-1.95-4.725h2.25a3 3 0 003-3zm-3-3.675a1.5 1.5 0 011.5 1.5v2.175a1.5 1.5 0 01-1.5 1.5h-3.9l-1.575-1.35V18.4L60.1 14.8h7.05zM16.825 4.675A3.75 3.75 0 0120.35 2.2h30a3.75 3.75 0 013.45 2.25l6 13.5H12.1l4.725-13.275zM2.35 18.475V16.3a1.5 1.5 0 011.5-1.5h7.8l-1.275 3.675-1.95 1.425h-4.5a1.5 1.5 0 01-1.575-1.425zm12.9 31.575a.75.75 0 01-.75.75H6.4a.75.75 0 01-.75-.75v-7.875h9.6v7.875zm49.35.75h-8.1a.75.75 0 01-.75-.75v-7.875h9.6v7.875a.75.75 0 01-.75.75zm.75-24.6v14.475H5.65V26.5a5.25 5.25 0 012.175-4.275l3.825-2.775h48.675l3.225 2.775a5.248 5.248 0 011.8 3.975z" fill="#000"/></svg>