<svg width="61" height="61" fill="none" xmlns="http://www.w3.org/2000/svg"><path d="M30.5 1.144c-7.816 0-15.25 3.05-20.779 8.578C-.954 20.397-1.716 37.362 7.625 48.8l.38.762-.38.572c-1.335 2.478-2.86 4.385-4.957 5.338-.762.38-1.334 1.334-1.143 2.097.19.953.762 1.525 1.715 1.715.763.19 1.525.19 2.288.19 2.097 0 5.91-.38 9.912-3.05l.572-.38.572.38c4.194 2.288 8.96 3.432 13.725 3.432 7.816 0 15.25-3.05 20.778-8.578 5.528-5.528 8.578-12.963 8.578-20.778 0-7.816-3.05-15.25-8.578-20.778C45.75 4.194 38.315 1.144 30.5 1.144zm0 1.906c7.243 0 14.106 2.86 19.443 8.006 5.338 5.147 8.007 12.01 8.007 19.444 0 7.244-2.86 14.106-8.007 19.444C44.797 55.28 37.934 57.95 30.5 57.95a27.263 27.263 0 01-13.916-3.813c-.19 0-.381-.19-.572-.19-.19 0-.381 0-.572.19-3.05 2.478-6.29 3.24-8.578 3.432l-3.431.38 2.478-2.287c1.525-1.334 2.86-3.24 4.003-5.91.19-.38.19-.762-.19-.952C.19 37.934.571 21.54 10.864 11.247 16.393 5.909 23.255 3.05 30.5 3.05z" fill="#fff"/><path d="M43.325 38.926l-.172-.343c-.516-1.026-5.846-2.566-6.19-2.566h-.343c-.688.171-1.376.685-2.751 1.882-.344.171-.688.342-1.032.171-1.89-1.026-4.126-3.08-5.157-4.277-1.204-1.368-2.75-3.593-3.439-5.303-.172-.343 0-.685.172-1.027 1.548-1.369 2.235-2.053 2.407-2.908 0-.514-.86-5.988-1.89-6.502l-.345-.17c-.688-.343-1.547-1.027-2.579-.856-.172 0-.515.171-.687.342-.688.513-2.407 1.54-3.095 3.08-.516 1.026-.688 9.751 5.845 17.108 6.534 7.357 14.614 7.699 15.817 7.357h.172c1.547-.514 2.923-2.053 3.61-2.738.688-1.197.172-2.566-.343-3.25z" fill="#fff"/></svg>