<svg width="24" height="43" fill="none" xmlns="http://www.w3.org/2000/svg"><path d="M23.464 16.71a.617.617 0 00-.537-.308h-9.033L17.17 1.647a.6.6 0 00-.373-.69.622.622 0 00-.755.248L.806 25.747a.596.596 0 00-.013.612.62.62 0 00.537.309h9.033L7.085 41.423a.6.6 0 00.373.69.62.62 0 00.756-.248l15.235-24.543a.59.59 0 00.015-.611zM9.077 38.157L11.732 26.2a.599.599 0 00-.36-.685.597.597 0 00-.256-.054H2.43L15.18 4.916l-2.656 11.958a.6.6 0 00.36.684.607.607 0 00.257.055h8.684L9.076 38.156z" fill="#252826"/></svg>