<svg width="30" height="42" fill="none" xmlns="http://www.w3.org/2000/svg"><path d="M22.002 8.131h5.538c.024 0 .122.01 0-.01.02.005.195.06.13.033-.081-.037.07.046.07.042.134.074-.041-.051.02.014.032.032.06.069.09.106-.078-.102-.009-.005.007.028.017.036.05.152.017.023.012.046.02.101.032.147.029.088.004-.138-.004.033V39.1c0 .088-.004.176 0 .268v.018c0 .028-.008.139.008 0-.004.023-.053.222-.028.148.032-.092-.04.079-.037.079-.065.152.045-.047-.012.023a.9.9 0 01-.094.101c.09-.087.004-.009-.024.01-.033.018-.134.055-.02.018-.041.014-.09.023-.13.037-.078.032.125.005-.03-.005-.207-.014-.419 0-.622 0H4.633c-.725 0-1.45-.023-2.175 0-.114.005-.032.005 0 .01a.864.864 0 01-.154-.047c.142.051-.155-.133-.045-.027a1.225 1.225 0 00-.073-.079c-.102-.101.028.097-.029-.046-.016-.037-.037-.07-.049-.106.057.138-.012-.083-.016-.12.016.11.008.014.008-.037V11.4c0-.942-.008-1.884 0-2.826v-.041c-.004-.13-.004-.037-.008 0 .008-.06.024-.12.04-.176-.044.162.119-.175.025-.05.025-.028.049-.056.07-.084.089-.115-.086.033.04-.032.033-.018.061-.041.094-.055-.122.064.073-.014.106-.019-.094.014-.017.01.028.01h5.513c.318 0 .627-.32.61-.693-.015-.374-.268-.693-.61-.693H2.882c-.346 0-.684-.014-1.014.143-.607.287-.973.942-.985 1.686-.004.286 0 .568 0 .854v29.958c.016.863.55 1.644 1.315 1.782.273.05.554.032.83.032h24.003c.31 0 .647.033.949-.069.696-.226 1.144-.946 1.156-1.754V11.234c0-.886.016-1.778 0-2.669-.016-.813-.489-1.579-1.21-1.764-.28-.074-.573-.05-.858-.05H22.01c-.317 0-.627.318-.61.692.008.37.26.688.602.688z" fill="#1BA67A"/><path d="M21.392 6.127c0 .808-.033 1.62 0 2.429 0 .042-.008.143.008.018-.004.047-.065.254-.016.13-.017.046-.041.087-.066.134-.044.092.098-.097-.016.027l-.077.088c-.086.097.053-.014-.049.037.004 0-.155.079-.073.042.081-.033-.09.023-.082.018-.142.046.09.01-.06.005h-.025c-.135-.005-.269 0-.403 0H10.15c-.367 0-.737-.01-1.108 0-.134.004.05.032-.069-.005-.036-.01-.069-.023-.106-.032.11.037.004-.005-.028-.019-.029-.014-.126-.092-.033-.009-.04-.037-.077-.083-.114-.125-.081-.092-.016-.027-.004-.004a1.384 1.384 0 01-.065-.134c-.037-.088.016.138-.004-.037-.004-.042-.02-.083-.024-.125.016.139.008-.041.008-.074-.004-.48 0-.965 0-1.445v-.923c0-.019.008-.144-.008-.01.008-.06.024-.12.04-.18-.036.153.078-.147.041-.087-.049.078.057-.07.057-.07.024-.027.053-.055.077-.083-.093.083.004 0 .033-.01.032-.013.138-.05.028-.018.037-.009.07-.023.106-.032.147-.041-.093-.01.061-.004.078.004.151 0 .228 0h2.887c.33 0 .61-.32.61-.693 0-.134.005-.263.017-.397.008-.111-.016.106 0-.005a5.027 5.027 0 01.073-.36c.017-.07.037-.138.058-.203l.036-.116c-.045.12-.008.024.004 0 .065-.143.13-.286.212-.42.02-.037.138-.203.061-.101.04-.056.077-.107.122-.157a2.162 2.162 0 01.208-.227c.012-.009.122-.115.06-.06-.044.042.086-.069.11-.087a1.6 1.6 0 01.18-.125c.053-.037.11-.065.163-.097.016-.01.118-.06.049-.028-.074.037.06-.027.077-.032.126-.05.257-.092.39-.125.038-.009.204-.037.082-.018.086-.01.167-.019.253-.019.122-.004.244.005.366.014.025 0 .118.023.004 0l.082.014a2.316 2.316 0 01.42.13l.1.04c.09.038-.08-.045 0 0 .127.075.253.144.372.236.052.037.101.079.15.12-.102-.087.061.065.078.084.105.106.199.226.289.346-.078-.102.04.065.06.101.045.074.086.153.127.231.04.079.073.162.106.245-.053-.125.024.079.036.116.053.175.09.355.118.54-.02-.139.005.083.009.129.004.079.004.157.004.24 0 .374.28.693.61.693 1.026 0 2.052-.01 3.079 0h.09c-.107 0 .036.014.085.023.065.018-.009-.01-.02-.014.04.018.077.05.117.074.057.032-.004-.01-.016-.019a.451.451 0 01.078.084c.024.027.048.06.073.087-.041-.055-.025-.041-.004.01l.036.083c.041.087-.02-.093-.004.004.008.042.02.079.025.12.024.106 0-.161.004.037.008.36.273.711.61.693a.67.67 0 00.611-.693c-.02-.826-.48-1.556-1.189-1.8-.256-.088-.525-.074-.79-.074h-2.789l.611.692c0-1.68-.916-3.158-2.3-3.745-1.332-.563-2.928-.06-3.82 1.187a4.412 4.412 0 00-.798 2.558l.611-.692H9.71c-.358 0-.761-.042-1.111.069-.766.24-1.214 1.039-1.214 1.911v1.561c0 .55-.036 1.094.175 1.607.273.656.888 1.03 1.51 1.039h11.202c.64 0 1.242.046 1.771-.466.363-.351.554-.873.562-1.409.004-.124 0-.254 0-.378V6.132c0-.36-.28-.711-.61-.693-.322.014-.603.3-.603.688zM8.355 25.11l3.876 4.395.554.628a.57.57 0 00.863 0l2.712-3.075a334378.38 334378.38 0 005.289-5.998.775.775 0 000-.98.57.57 0 00-.863 0l-2.712 3.076-4.304 4.88-.985 1.118h.863l-3.876-4.396-.554-.628a.57.57 0 00-.863 0 .765.765 0 000 .98z" fill="#1BA67A"/></svg>