<svg width="36" height="62" fill="none" xmlns="http://www.w3.org/2000/svg"><path d="M24.063 13.773c-1.466 2.533-.586 5.813 1.947 7.28 2.533 1.466 5.813.587 7.28-1.947 1.467-2.533.587-5.813-1.947-7.28-2.533-1.466-5.813-.587-7.28 1.947z" fill="#252826"/><path d="M28.25 25.533l-6.933-4c-6.347-3.68-8.534-11.84-4.854-18.187L11.85.68C7.61 7.986 8.943 17 14.437 22.84L.703 46.626l4.613 2.667 4-6.934 4.614 2.667-8 13.867 4.613 2.666 16.774-29.04c3.04 4.134 3.546 9.84.826 14.56l4.614 2.667c4.266-7.333 3.413-17.547-4.507-24.213z" fill="#252826"/><path d="M20.01 7.906a4.01 4.01 0 005.466-1.466A4.01 4.01 0 0024.01.973a4.01 4.01 0 00-5.467 1.467c-1.093 1.92-.453 4.373 1.467 5.466z" fill="#252826"/></svg>