<svg width="142" height="40" fill="none" xmlns="http://www.w3.org/2000/svg"><path d="M36.113 15.178a.959.959 0 00-.782-1.75c-4.179 1.873-9.582 3.096-14.762 3.03-3.458-.045-8.625-1.098-11.622-3.28-1.492-1.086-3.034-2.347-4.32-3.807-1.242-1.408-2.233-2.994-2.675-4.768-.257-1.034.076-1.05.638-.745 7.226 3.935 12.19 5.733 17.627 5.44C25.705 9 31.534 6.564 40.58 2.03a.941.941 0 01.483-.109.98.98 0 01.48.175c.182.12.332.278.448.472.121.204.205.454.248.744.966 6.598 2.461 11.185 5.465 14.09 3.03 2.93 7.477 4.054 14.307 3.686a.961.961 0 01.558.136c.187.113.357.3.497.55.151.271.237.568.257.87.02.31-.028.625-.144.926-1.692 4.388-3.565 7.22-5.61 9.23-2.037 2.003-4.277 3.215-6.688 4.344-1.602.75-2.6.924-3.148.757-.118-.036-.191-.09-.226-.154-.055-.103-.068-.262-.045-.455.076-.665.547-1.467 1.247-2.042a25.883 25.883 0 001.964-1.694.96.96 0 10-1.323-1.39 22.059 22.059 0 01-2.813 2.288 14.222 14.222 0 01-2.718 1.46c-1.652.654-3.443 1.213-5.163 1.401-1.647.18-3.237.026-4.579-.714-.074-.041-.164-.155-.252-.313a2.103 2.103 0 01-.251-.82c-.022-.251.006-.494.108-.68a.61.61 0 01.155-.183c2.577-.58 5.218-1.636 7.771-2.983a.96.96 0 00-.893-1.698c-2.422 1.279-4.911 2.275-7.318 2.815-2.127.478-4.188.598-6.076.238-1.712-.327-3.516-.817-5.13-1.603-1.557-.756-2.936-1.79-3.871-3.221-.14-.213-.21-.572-.192-.941.01-.194.047-.38.114-.532a.48.48 0 01.158-.213.263.263 0 01.11-.038c2.43.777 5.144.961 7.944.71 3.837-.346 7.844-1.507 11.5-3.071a.96.96 0 10-.75-1.766c-3.495 1.496-7.302 2.603-10.915 2.928-2.602.234-5.1.064-7.3-.66a12.286 12.286 0 01-1.161-.448c-1.634-.729-3.331-1.639-4.789-2.793-1.415-1.12-2.61-2.473-3.303-4.12-.106-.252-.114-.59-.026-.89a.88.88 0 01.134-.286.48.48 0 01.034-.04c3.114 1.614 6.84 2.331 10.669 2.38 5.46.07 11.159-1.22 15.566-3.196zM7.82 14.726c.132.096.266.19.402.282a2.856 2.856 0 00-.353.77c-.206.702-.17 1.527.102 2.175.83 1.975 2.232 3.574 3.881 4.879 1.472 1.165 3.134 2.09 4.752 2.84a2.81 2.81 0 00-.12.241c-.163.372-.25.79-.271 1.209-.038.747.147 1.536.499 2.075 1.15 1.76 2.8 3.008 4.644 3.905 1.786.869 3.754 1.406 5.612 1.76 1.498.286 3.077.31 4.698.119a3.56 3.56 0 000 .653c.05.568.23 1.13.484 1.585.259.465.608.847 1.003 1.065 1.727.952 3.699 1.159 5.705.94 1.933-.212 3.886-.817 5.668-1.521.338-.134.676-.284 1.011-.448-.03.5.057.977.28 1.393.27.506.715.89 1.36 1.086.962.293 2.434.12 4.515-.854 2.58-1.209 4.986-2.515 7.221-4.712 2.227-2.189 4.252-5.235 6.054-9.907.22-.568.309-1.159.271-1.736a3.977 3.977 0 00-.497-1.682 3.358 3.358 0 00-1.18-1.257 2.84 2.84 0 00-1.648-.414c-6.26.338-10.264-.624-12.88-3.153-2.642-2.555-3.988-6.8-4.894-12.985a3.924 3.924 0 00-.503-1.45 3.339 3.339 0 00-1.04-1.088 2.885 2.885 0 00-1.413-.49 2.825 2.825 0 00-1.46.312C30.916 4.732 25.277 7.104 20.12 7.382c-5.107.276-9.882-1.515-16.999-5.422-.502-.276-.99-.327-1.438-.216a1.91 1.91 0 00-.8.425 2.36 2.36 0 00-.514.646A3.217 3.217 0 00.09 5.062c.527 2.114 1.67 3.963 3.095 5.579 1.38 1.566 3.035 2.92 4.636 4.085zm98.302-1.299a.959.959 0 00-.782 1.75c4.408 1.977 10.105 3.266 15.566 3.196 3.83-.049 7.556-.766 10.671-2.38a.362.362 0 01.032.037l.002.002-.002.001a.896.896 0 01.135.287c.088.3.079.637-.027.889-.692 1.647-1.888 3-3.303 4.12-1.458 1.154-3.154 2.064-4.789 2.793a12.3 12.3 0 01-1.162.448c-2.198.724-4.697.894-7.299.66-3.613-.325-7.419-1.432-10.914-2.928a.96.96 0 00-.752 1.766c3.657 1.564 7.664 2.725 11.501 3.07 2.8.252 5.513.068 7.943-.709a.26.26 0 01.111.038l.026.016c.05.041.094.11.132.197.067.153.104.338.114.532.018.368-.052.725-.19.938l-.002-.001c-.937 1.435-2.316 2.47-3.87 3.225-1.615.786-3.419 1.276-5.131 1.603-1.887.36-3.949.24-6.076-.238-2.406-.54-4.896-1.536-7.317-2.815a.96.96 0 00-.894 1.698c2.553 1.347 5.194 2.403 7.771 2.983a.612.612 0 01.155.184c.102.185.131.428.108.68a2.107 2.107 0 01-.251.819c-.088.158-.177.272-.252.313-1.342.74-2.932.894-4.578.714-1.721-.188-3.512-.746-5.164-1.4a14.222 14.222 0 01-2.718-1.46c-.96-.65-1.9-1.421-2.813-2.289a.96.96 0 10-1.322 1.39c.644.612 1.3 1.18 1.963 1.694.734.601 1.204 1.383 1.278 2.022.021.18.007.33-.048.428-.038.068-.118.124-.246.162-.59.175-1.66-.013-3.36-.815C88 35.928 85.8 34.71 83.8 32.717c-2.011-2.005-3.856-4.82-5.525-9.147a2.176 2.176 0 01-.144-.925c.02-.303.106-.6.257-.87.14-.252.31-.438.497-.551a.96.96 0 01.558-.136c6.83.368 11.277-.757 14.307-3.687 3.004-2.904 4.5-7.49 5.465-14.09.043-.289.127-.539.249-.743.115-.194.265-.353.446-.472a.993.993 0 01.482-.175.938.938 0 01.482.11c9.046 4.533 14.875 6.97 20.363 7.267 5.391.29 10.317-1.474 17.442-5.34.662-.358 1.1-.467.823.645-.442 1.774-1.433 3.36-2.675 4.768-1.286 1.46-2.828 2.721-4.32 3.807-3.203 2.332-7.747 3.23-11.622 3.28-5.179.066-10.583-1.157-14.762-3.03zm27.109 1.581c.136-.092.27-.186.402-.282 1.601-1.165 3.256-2.52 4.636-4.085 1.424-1.616 2.568-3.465 3.095-5.58a3.22 3.22 0 00-.279-2.246 2.396 2.396 0 00-.513-.646c-.231-.202-.5-.35-.801-.425-.448-.111-.936-.06-1.438.216-7.117 3.907-11.892 5.698-16.999 5.422-5.157-.278-10.796-2.65-19.604-7.064a2.827 2.827 0 00-1.46-.313 2.89 2.89 0 00-1.412.49 3.34 3.34 0 00-1.04 1.089 3.92 3.92 0 00-.504 1.45c-.906 6.185-2.252 10.43-4.894 12.985-2.616 2.529-6.62 3.49-12.88 3.153a2.84 2.84 0 00-1.648.414 3.359 3.359 0 00-1.18 1.257 3.977 3.977 0 00-.497 1.682 4.082 4.082 0 00.27 1.736c1.778 4.606 3.772 7.633 5.962 9.815 2.202 2.194 4.568 3.509 7.103 4.706 2.175 1.028 3.718 1.217 4.718.92.649-.191 1.102-.567 1.381-1.063.228-.406.323-.873.3-1.368.324.158.65.302.978.432 1.782.704 3.736 1.309 5.668 1.52 2.006.22 3.978.013 5.705-.94.395-.217.744-.599 1.003-1.064a4.064 4.064 0 00.484-1.585 3.56 3.56 0 000-.653c1.621.19 3.201.167 4.698-.119 1.858-.355 3.826-.891 5.612-1.76 1.846-.898 3.497-2.145 4.644-3.901l-.002-.002.002-.002c.352-.538.537-1.327.499-2.075a3.461 3.461 0 00-.271-1.209 2.642 2.642 0 00-.12-.241c1.617-.75 3.28-1.675 4.752-2.84 1.649-1.305 3.051-2.904 3.881-4.88.273-.647.308-1.472.102-2.173a2.836 2.836 0 00-.353-.77z" fill="#000"/></svg>