<svg width="42" height="42" fill="none" xmlns="http://www.w3.org/2000/svg"><path d="M40.25 20c0 10.631-8.619 19.25-19.25 19.25-10.632 0-19.25-8.619-19.25-19.25S10.368.75 21 .75C31.631.75 40.25 9.369 40.25 20z" fill="#fff" stroke="#252826" stroke-width="1.5"/><path d="M21.696 26.992l-.452.044v2.224c0 .07-.018.106-.032.126l-.003.002s0 0 0 0l-.003.002a.138.138 0 01-.05.006.096.096 0 01-.037-.005h0c-.002 0-.005-.002-.012-.01h0l-.009-.01c-.012-.012-.03-.032-.03-.11v-2.229l-.476-.023a8.532 8.532 0 01-2.41-.477h0c-.786-.273-1.413-.656-1.897-1.145l-.007-.008-.008-.007c-.055-.052-.092-.118-.092-.246v-.03c.03.017.066.04.108.072h0c1.516 1.12 3.093 1.7 4.726 1.7 1.249 0 2.294-.272 3.076-.87.803-.616 1.198-1.497 1.198-2.558 0-.655-.206-1.239-.648-1.688a3.896 3.896 0 00-1.45-.911h0l-.004-.002a26.7 26.7 0 00-2.106-.625h0l-.006-.001c-1.057-.262-1.895-.519-2.512-.77h0l-.005-.002a3.65 3.65 0 01-1.47-1.057c-.359-.426-.565-1.026-.565-1.862 0-.673.168-1.265.495-1.795.327-.53.798-.963 1.424-1.298.627-.335 1.347-.534 2.165-.584l.47-.029V10.6c0-.07.017-.106.032-.126l.002-.002.003-.001a.14.14 0 01.05-.007.13.13 0 01.025.002c.004 0 .006.002.006.002h.002a.068.068 0 01.01.011c.008.008.028.03.028.121v2.208l.453.042a7.197 7.197 0 012.088.51 4.5 4.5 0 011.617 1.1l.007.008.007.008c.105.104.13.187.13.258a.15.15 0 01-.007.051.467.467 0 01-.092-.065h0l-.006-.006c-.689-.588-1.368-1.028-2.028-1.305H23.4c-.68-.283-1.456-.417-2.322-.417-1.229 0-2.262.288-3.054.919h0l-.002.001c-.798.642-1.2 1.528-1.2 2.592 0 .73.211 1.376.678 1.881.424.459.943.795 1.558 1.019.564.207 1.304.422 2.212.646h0c1.015.249 1.819.495 2.414.73.55.216 1.01.541 1.389.976.328.384.52.929.52 1.687-.01.958-.352 1.744-1.04 2.385-.696.648-1.635 1.047-2.857 1.164z" fill="#252826" stroke="#252826"/></svg>