<svg width="54" height="66" fill="none" xmlns="http://www.w3.org/2000/svg"><path d="M24.184 1.207a4.25 4.25 0 015.69-.077c3.691 3.238 7.138 5.38 10.324 6.443 3.175 1.058 6.553 1.871 10.133 2.439a4.25 4.25 0 013.585 4.197v25.714c0 5.004-2.403 9.703-6.46 12.633l-15.48 11.18a8.5 8.5 0 01-9.953 0l-15.48-11.18a15.583 15.583 0 01-6.46-12.633V14.26a4.25 4.25 0 013.628-4.204c3.167-.469 6.531-1.296 10.09-2.482 3.433-1.144 6.698-3.086 9.789-5.827l.594-.539zm3.822 2.054a1.42 1.42 0 00-1.908.035l-.617.56c-3.38 2.996-6.975 5.135-10.783 6.405-3.711 1.237-7.235 2.103-10.572 2.597a1.416 1.416 0 00-1.21 1.401v25.664A12.75 12.75 0 008.201 50.26l15.48 11.18a5.667 5.667 0 006.636 0l15.481-11.18a12.75 12.75 0 005.285-10.336V14.21c0-.697-.507-1.29-1.195-1.399-3.732-.591-7.26-1.44-10.586-2.55-3.581-1.193-7.341-3.53-11.296-7zM40.77 24.934c.501.52.525 1.324.083 1.872l-.12.131-17.654 17a1.417 1.417 0 01-1.834.113l-.132-.113-7.846-7.555a1.417 1.417 0 011.83-2.157l.135.116 6.863 6.608 16.672-16.053a1.417 1.417 0 012.003.038z" fill="#252826"/></svg>