<svg width="41" height="41" fill="none" xmlns="http://www.w3.org/2000/svg"><path d="M32.76 39.975H8.24c-2.747 0-5.002-2.255-5.002-5.002V6.027c0-2.747 2.255-5.002 5.002-5.002h24.477c2.747 0 5.002 2.255 5.002 5.002v28.946c.041 2.747-2.214 5.002-4.96 5.002zM8.24 2.132c-2.132 0-3.895 1.763-3.895 3.895v28.946c0 2.132 1.763 3.895 3.895 3.895h24.477c2.132 0 3.895-1.763 3.895-3.895V6.027c0-2.132-1.763-3.895-3.895-3.895H8.241z" fill="#000"/><path d="M32.472 11.603H14.719a.41.41 0 01-.41-.41v-.164a.41.41 0 01.41-.41H32.43a.41.41 0 01.41.41v.164c.04.205-.164.41-.37.41z" fill="#000"/><path d="M32.39 11.767H14.8a.691.691 0 01-.697-.697c0-.369.287-.697.697-.697h17.59c.368 0 .697.287.697.697-.042.41-.329.697-.698.697zm-17.59-.984a.323.323 0 00-.328.328c0 .164.123.328.329.328h17.588a.323.323 0 00.328-.328.323.323 0 00-.328-.328H14.8zm17.672 10.209H14.719a.41.41 0 01-.41-.41v-.164a.41.41 0 01.41-.41H32.43a.41.41 0 01.41.41v.164c.04.246-.164.41-.37.41z" fill="#000"/><path d="M32.39 21.197H14.8a.691.691 0 01-.697-.697c0-.41.287-.697.697-.697h17.59c.368 0 .697.287.697.697s-.329.697-.698.697zM14.8 20.172a.323.323 0 00-.328.328c0 .205.123.328.329.328h17.588a.323.323 0 00.328-.328c0-.205-.123-.328-.328-.328H14.8zm17.672 10.209H14.719a.41.41 0 01-.41-.41v-.164a.41.41 0 01.41-.41H32.43a.41.41 0 01.41.41v.164c.04.246-.164.41-.37.41z" fill="#000"/><path d="M32.39 30.586H14.8a.691.691 0 01-.697-.697.69.69 0 01.697-.697h17.59c.368 0 .697.287.697.697-.042.369-.329.697-.698.697zm-17.59-.984a.323.323 0 00-.328.328c0 .205.123.328.329.328h17.588a.323.323 0 00.328-.328c0-.205-.123-.328-.328-.328H14.8zm-4.427-15.826h-.123a2.66 2.66 0 01-2.665-2.665 2.66 2.66 0 012.665-2.665h.123a2.66 2.66 0 012.665 2.665c0 1.476-1.23 2.665-2.665 2.665zm-.123-4.223a1.557 1.557 0 100 3.116h.123a1.557 1.557 0 100-3.116h-.123zm.123 13.612h-.123A2.66 2.66 0 017.585 20.5a2.66 2.66 0 012.665-2.665h.123a2.66 2.66 0 012.665 2.665c0 1.476-1.23 2.665-2.665 2.665zm-.123-4.223a1.557 1.557 0 100 3.116h.123a1.557 1.557 0 100-3.116h-.123zm.123 13.612h-.123a2.66 2.66 0 01-2.665-2.665 2.66 2.66 0 012.665-2.665h.123a2.66 2.66 0 012.665 2.665c0 1.476-1.23 2.665-2.665 2.665zm-.123-4.182a1.557 1.557 0 100 3.116h.123a1.557 1.557 0 100-3.116h-.123z" fill="#000"/></svg>