<svg width="71" height="61" fill="none" xmlns="http://www.w3.org/2000/svg"><path d="M69.717 12.149h-8.725V3.422A3.432 3.432 0 0057.57 0H32.763c-.856 0-1.626.257-2.481.513-.77.343-1.454.77-2.053 1.37L1.027 29.087A3.426 3.426 0 000 31.57c0 .942.342 1.712 1.027 2.396L27.03 59.973c.685.685 1.54 1.027 2.396 1.027.855 0 1.71-.342 2.395-1.027l27.202-27.206c.599-.599 1.027-1.369 1.369-2.139.342-.77.513-1.625.513-2.48V14.714h8.725c.685 0 1.284-.599 1.284-1.283.085-.77-.514-1.283-1.198-1.283zM58.425 28.147c0 .343-.085.941-.342 1.455-.256.513-.513 1.026-.77 1.283L30.025 58.177a.777.777 0 01-.598.256.777.777 0 01-.6-.256L2.824 32.168a.924.924 0 01-.257-.599c0-.256.086-.427.257-.598L30.025 3.678c.257-.257.77-.513 1.283-.77a3.527 3.527 0 011.455-.342h24.721a.78.78 0 01.6.256.777.777 0 01.256.6v8.726h-4.534c-.257-1.198-.855-2.31-1.71-3.251a6.345 6.345 0 00-4.535-1.883c-1.625 0-3.25.6-4.533 1.883a6.346 6.346 0 00-1.882 4.534c0 1.625.599 3.251 1.882 4.534a6.344 6.344 0 004.533 1.883c1.626 0 3.251-.6 4.534-1.883l-.94-.94.94.94c.941-.94 1.54-2.053 1.711-3.25h4.534v13.431h.085zM47.561 14.715h3.593c-.17.514-.513 1.027-.855 1.455-.77.77-1.711 1.112-2.738 1.112-1.026 0-1.967-.342-2.737-1.112s-1.112-1.711-1.112-2.738.342-1.968 1.112-2.738 1.71-1.112 2.737-1.112c1.027 0 1.968.342 2.738 1.112.428.428.684.941.855 1.455h-3.593c-.684 0-1.283.599-1.283 1.283 0 .684.6 1.283 1.283 1.283z" fill="#252826"/><path d="M40.375 33.11c0-.685-.17-1.37-.427-2.054-.257-.684-.685-1.283-1.283-1.797-.6-.598-1.198-1.026-1.882-1.283-.685-.256-1.369-.428-2.053-.428-1.112 0-2.139.343-2.994.77-.6.257-1.112.6-1.626.856l-4.875-4.877a5.75 5.75 0 01.94-.599 3.894 3.894 0 011.797-.427c.77 0 1.368.256 1.967.855a1.24 1.24 0 001.797 0 1.24 1.24 0 000-1.796c-1.027-1.027-2.396-1.626-3.764-1.626-.941 0-1.968.257-2.909.77-.513.257-1.112.599-1.625 1.027l-.684-.685a1.24 1.24 0 00-1.797 0 1.24 1.24 0 000 1.797l.6.599c-.514.599-.942 1.198-1.198 1.882a5.632 5.632 0 00-.6 2.567c0 1.71.77 3.08 1.626 4.02a6.59 6.59 0 001.625 1.198c.6.257 1.198.343 1.797.343 1.026 0 2.053-.343 2.908-.77.599-.257 1.283-.685 1.882-1.027l5.304 5.304c-.941.77-1.882 1.027-2.652 1.027-.77 0-1.454-.257-2.139-.941a1.24 1.24 0 00-1.796 0 1.24 1.24 0 000 1.797 5.64 5.64 0 003.935 1.625c1.54 0 3.08-.599 4.448-1.797l.599.6a1.24 1.24 0 001.796 0 1.24 1.24 0 000-1.797l-.684-.685c.342-.428.684-.94 1.026-1.454.6-.941.941-1.968.941-2.995zm-14.114-1.883c-.513.171-.941.257-1.369.257-.256 0-.513-.086-.77-.171-.256-.086-.513-.257-.855-.6-.513-.512-.941-1.282-.941-2.138 0-.428.086-.941.342-1.454.171-.343.428-.685.684-1.113l4.449 4.45c-.513.341-1.112.598-1.54.77zm5.731-.256c.514-.257.941-.514 1.369-.685a4.744 4.744 0 011.454-.257c.342 0 .684.086 1.027.172.342.17.684.342 1.112.77.342.342.599.684.77 1.026.17.342.17.685.17.941 0 .514-.17 1.112-.512 1.797-.172.257-.343.599-.6.855l-4.79-4.62z" fill="#252826"/></svg>